<svg xmlns="http://www.w3.org/2000/svg" viewBox="0 0 32 32" fill="none">
  <rect width="32" height="32" rx="8" fill="#F97316"/>
  <!-- Flame icon -->
  <path d="M16 4C16 4 12 10 12 14C12 16.2 13.8 18 16 18C18.2 18 20 16.2 20 14C20 12 18 9 18 9C18 9 19 13 17 15C17 12 16 10 16 4Z" fill="white"/>
  <path d="M10 18C10 22.4 12.7 26 16 26C19.3 26 22 22.4 22 18C22 15.5 21 13.5 19.5 12C19.5 14 18.5 15.5 17 16.5C17.5 15 17.5 13.5 16.5 12.5C16.5 15 15 17 13 17.5C11.2 16 10 17 10 18Z" fill="white"/>
</svg>
