<svg xmlns="http://www.w3.org/2000/svg" viewBox="0 0 200 40" fill="none">
  <!-- Icono llama -->
  <rect x="0" y="4" width="32" height="32" rx="8" fill="#F97316"/>
  <path d="M16 8C16 8 12 14 12 18C12 20.2 13.8 22 16 22C18.2 22 20 20.2 20 18C20 16 18.5 13.5 18.5 13.5C18.5 13.5 19 17 17.5 19C17.5 16 16 14 16 8Z" fill="white"/>
  <path d="M10 22C10 26.4 12.7 30 16 30C19.3 30 22 26.4 22 22C22 19.5 21 17.5 19.5 16C19.5 18 18.5 19.5 17 20.5C17.5 19 17.5 17.5 16.5 16.5C16.5 19 15 21 13 21.5C11.2 20 10 21 10 22Z" fill="white"/>

  <!-- Texto "CachaOfertas" -->
  <text x="42" y="26" font-family="'Plus Jakarta Sans', system-ui, sans-serif" font-size="16" font-weight="700" fill="#1C1917">
    Cacha<tspan fill="#F97316">Ofertas</tspan>
  </text>

  <!-- Texto "CMS" — etiqueta pequeña -->
  <rect x="158" y="14" width="34" height="14" rx="4" fill="#F97316" opacity="0.15"/>
  <text x="175" y="24" font-family="'Inter', system-ui, sans-serif" font-size="10" font-weight="600" fill="#EA580C" text-anchor="middle">CMS</text>
</svg>
